<svg width="36" height="44" viewBox="0 0 36 44" fill="none" xmlns="http://www.w3.org/2000/svg">
<path d="M22 2H6C4.93913 2 3.92172 2.4201 3.17157 3.16789C2.42143 3.91567 2 4.92989 2 5.98742V37.8868C2 38.9443 2.42143 39.9585 3.17157 40.7063C3.92172 41.4541 4.93913 41.8742 6 41.8742H30C31.0609 41.8742 32.0783 41.4541 32.8284 40.7063C33.5786 39.9585 34 38.9443 34 37.8868V13.9623L22 2Z" stroke="#FB4719" stroke-width="4" stroke-linecap="round" stroke-linejoin="round"/>
<path d="M22 2V13.9622H34" stroke="#FB4719" stroke-width="4" stroke-linecap="round" stroke-linejoin="round"/>
<path d="M26 23.9308H10" stroke="#FB4719" stroke-width="4" stroke-linecap="round" stroke-linejoin="round"/>
<path d="M26 31.9056H10" stroke="#FB4719" stroke-width="4" stroke-linecap="round" stroke-linejoin="round"/>
<path d="M14 15.956H12H10" stroke="#FB4719" stroke-width="4" stroke-linecap="round" stroke-linejoin="round"/>
</svg>
