<svg viewBox="0 0 33 50" fill="none" xmlns="http://www.w3.org/2000/svg">
<path d="M16.7273 38.9906C24.6099 38.9906 31.0001 32.6205 31.0001 24.7627C31.0001 16.9049 24.6099 10.5349 16.7273 10.5349C8.84471 10.5349 2.45459 16.9049 2.45459 24.7627C2.45459 32.6205 8.84471 38.9906 16.7273 38.9906Z" stroke="#FB4719" stroke-width="4" stroke-linecap="round" stroke-linejoin="round"/>
<path d="M16.7273 18.6651V24.7627L19.7857 27.8115" stroke="#FB4719" stroke-width="4" stroke-linecap="round" stroke-linejoin="round"/>
<path d="M25.9231 35.6366L25.2094 43.4213C25.1176 44.4348 24.6477 45.3771 23.8927 46.062C23.1376 46.747 22.1523 47.1247 21.1315 47.1205H12.3028C11.2819 47.1247 10.2967 46.747 9.54164 46.062C8.7866 45.3771 8.31674 44.4348 8.22487 43.4213L7.51123 35.6366M7.53162 13.8884L8.24526 6.10372C8.33682 5.0937 8.80379 4.15427 9.5545 3.46985C10.3052 2.78542 11.2855 2.40544 12.3028 2.40448H21.1723C22.1931 2.40035 23.1784 2.77806 23.9334 3.46298C24.6885 4.1479 25.1583 5.0902 25.2502 6.10372L25.9638 13.8884" stroke="#FB4719" stroke-width="4" stroke-linecap="round" stroke-linejoin="round"/>
</svg>
